<?xml version="1.0" standalone="no"?>
<!DOCTYPE svg PUBLIC "-//W3C//DTD SVG 20010904//EN"
 "http://www.w3.org/TR/2001/REC-SVG-20010904/DTD/svg10.dtd">
<svg version="1.0" xmlns="http://www.w3.org/2000/svg"
 width="1664.000000pt" height="1664.000000pt" viewBox="0 0 1664.000000 1664.000000"
 preserveAspectRatio="xMidYMid meet">
<metadata>
Created by potrace 1.14, written by Peter Selinger 2001-2017
</metadata>
<g transform="translate(0.000000,1664.000000) scale(0.100000,-0.100000)"
fill="#000000" stroke="none">
<path d="M7017 10874 c-1 -1 -38 -4 -82 -8 -44 -3 -91 -8 -105 -11 -54 -10
-176 -35 -185 -39 -5 -1 -23 -6 -40 -10 -127 -32 -353 -137 -480 -222 -244
-163 -478 -427 -597 -674 -9 -19 -27 -58 -41 -85 -64 -133 -123 -356 -147
-557 -9 -73 -6 -360 4 -408 3 -14 15 -70 26 -126 11 -56 26 -120 35 -143 l15
-42 -1368 4 c-752 3 -1368 5 -1369 6 0 1 -1 455 -1 1011 -1 907 -2 1013 -17
1043 -28 59 -39 61 -365 63 -327 3 -351 -1 -385 -58 -17 -30 -18 -117 -17
-2237 0 -1213 1 -2223 1 -2244 1 -28 10 -47 35 -75 l34 -37 309 -1 c291 -1
310 0 345 19 20 11 42 32 48 47 8 20 12 308 13 1025 l2 997 1155 -2 c635 0
1333 -1 1550 -2 276 0 404 3 424 11 49 20 85 51 112 97 35 59 36 149 4 221
-45 101 -99 274 -114 368 -22 135 -27 181 -27 279 1 143 7 199 36 321 28 120
46 175 86 261 156 338 434 585 783 699 150 48 224 60 391 60 171 0 233 -6 337
-34 256 -69 455 -181 640 -360 111 -108 170 -141 241 -134 77 7 109 24 184 99
149 148 245 220 399 297 193 98 369 140 584 141 191 1 276 -12 428 -63 202
-68 364 -170 512 -320 107 -109 162 -183 233 -311 70 -127 137 -330 152 -459
3 -26 7 -56 9 -67 30 -149 207 -229 347 -156 72 37 101 91 98 181 -3 78 -30
225 -60 323 -12 40 -24 79 -25 85 -12 65 -131 314 -201 421 -250 385 -634 658
-1068 761 -170 40 -261 49 -445 46 -96 -2 -193 -6 -215 -10 -187 -29 -384 -90
-541 -166 -108 -52 -307 -180 -359 -230 -17 -16 -34 -29 -39 -29 -4 0 -44 28
-89 63 -264 202 -581 327 -917 363 -53 5 -268 12 -273 8z"/>
<path d="M14040 10672 c-29 -9 -70 -56 -76 -88 -3 -17 -7 -481 -7 -1030 l-2
-998 -1560 -3 c-945 -2 -1574 -8 -1596 -13 -64 -18 -114 -62 -149 -137 -67
-138 -198 -358 -265 -444 -11 -14 -27 -36 -35 -49 -8 -12 -44 -59 -79 -104
-276 -347 -706 -743 -1162 -1068 -145 -104 -207 -147 -344 -238 -88 -59 -203
-133 -255 -165 -52 -32 -111 -69 -130 -81 -59 -39 -89 -40 -161 -4 -163 82
-960 626 -1075 735 -6 5 -26 21 -44 35 -18 14 -38 30 -44 35 -6 6 -60 53 -121
105 -124 107 -388 367 -485 480 -130 149 -159 177 -199 188 -84 26 -158 4
-223 -64 -44 -48 -68 -113 -62 -177 6 -74 14 -86 184 -282 56 -65 349 -355
425 -421 142 -124 181 -157 330 -275 249 -198 695 -506 917 -634 48 -28 187
-110 218 -129 19 -12 66 -35 104 -51 56 -24 83 -29 150 -29 96 -1 122 5 195
40 108 53 617 379 814 523 89 65 352 264 382 289 11 9 40 33 65 52 40 31 80
64 114 95 6 6 45 39 86 75 223 193 485 459 640 650 25 30 47 57 50 60 47 46
272 376 333 490 l35 65 293 2 c297 2 2610 5 2641 4 15 -1 16 -75 16 -1000 0
-938 1 -1001 18 -1029 31 -54 43 -55 369 -57 328 -2 335 -1 376 56 l22 32 0
2237 c0 2139 -1 2238 -18 2267 -34 57 -50 60 -375 60 -162 0 -302 -2 -310 -5z"/>
<path d="M1031 10266 c-19 -6 -44 -24 -55 -39 l-21 -28 -1 -1842 c-1 -1819 0
-1842 19 -1879 33 -60 47 -63 372 -62 315 0 328 2 369 57 20 27 20 30 21 1869
0 1998 3 1879 -54 1916 -22 15 -63 17 -321 18 -197 1 -306 -2 -329 -10z"/>
<path d="M14990 10271 c-29 -11 -55 -36 -68 -64 -9 -22 -12 -429 -12 -1865 0
-1801 0 -1838 20 -1869 10 -17 29 -37 42 -44 28 -15 585 -20 635 -5 18 5 43
20 55 33 l23 25 2 1851 c2 1470 0 1857 -10 1877 -7 13 -26 34 -44 46 -30 20
-42 21 -330 21 -164 0 -305 -3 -313 -6z"/>
<path d="M83 9828 c-16 -4 -40 -19 -54 -34 l-24 -26 -3 -1401 c-1 -949 1
-1410 8 -1427 6 -14 25 -35 43 -47 33 -23 38 -23 338 -23 283 0 306 1 336 20
17 10 37 29 44 41 9 18 12 352 12 1419 0 1337 -1 1398 -18 1428 -32 53 -52 57
-367 57 -157 0 -299 -3 -315 -7z"/>
<path d="M15931 9823 c-20 -7 -37 -13 -38 -13 -1 0 -10 -14 -19 -32 -15 -29
-17 -148 -17 -1428 0 -1069 3 -1401 12 -1419 7 -12 27 -31 44 -41 30 -19 53
-20 329 -20 163 0 307 4 320 9 13 5 34 19 48 31 l25 22 2 1406 c2 1104 0 1412
-10 1431 -6 13 -24 33 -40 45 -26 19 -41 20 -323 21 -215 0 -306 -3 -333 -12z"/>
</g>
</svg>
